<?xml version="1.0" standalone="no"?>
<!DOCTYPE svg PUBLIC "-//W3C//DTD SVG 20010904//EN"
 "http://www.w3.org/TR/2001/REC-SVG-20010904/DTD/svg10.dtd">
<svg version="1.0" xmlns="http://www.w3.org/2000/svg"
 width="30.000000pt" height="30.000000pt" viewBox="0 0 64.000000 64.000000"
 preserveAspectRatio="xMidYMid meet">

<g transform="translate(0.000000,64.000000) scale(0.100000,-0.100000)"
fill="#000000" stroke="none">
<path d="M570 621 c0 -4 -10 -8 -22 -8 -13 -1 -24 -7 -26 -13 -2 -5 -7 -8 -12
-5 -4 3 -11 -7 -15 -23 -6 -25 -180 -212 -197 -212 -14 0 -8 47 7 60 23 19 18
40 -10 40 -26 0 -47 -19 -93 -79 -16 -21 -32 -31 -50 -31 -41 0 -93 -32 -114
-71 -25 -46 -23 -96 6 -146 14 -23 22 -51 19 -61 -5 -22 12 -38 52 -45 17 -3
43 -9 59 -13 42 -10 90 19 118 72 12 24 30 44 38 44 8 0 38 -12 65 -25 53 -26
90 -32 100 -15 3 6 21 11 38 11 31 2 31 2 4 6 -20 3 -27 9 -23 19 9 24 -12 54
-39 54 -15 0 -26 -7 -30 -20 -7 -23 10 -50 32 -50 8 0 11 -4 8 -10 -10 -16
-36 -12 -90 15 -27 13 -58 25 -67 25 -10 0 -18 2 -18 5 0 10 24 55 29 55 4 0
22 13 41 29 27 22 32 32 24 41 -8 8 -18 9 -30 2 -24 -12 -44 -5 -44 17 0 19
199 221 217 221 7 0 19 13 27 29 9 16 22 31 31 35 25 9 15 51 -12 52 -13 1
-23 -2 -23 -5z m40 -27 c0 -8 -7 -14 -15 -14 -9 0 -20 -11 -25 -24 -13 -36
-29 -41 -53 -17 -25 24 -18 35 40 61 41 18 53 17 53 -6z m-199 -186 c-67 -67
-114 -107 -121 -103 -8 5 27 47 97 119 74 77 112 109 120 103 9 -7 -19 -41
-96 -119z m-120 16 c-12 -15 -21 -32 -21 -39 0 -20 -68 -88 -103 -105 -49 -23
-46 -50 12 -114 52 -57 59 -70 41 -81 -5 -3 -10 -15 -10 -26 0 -46 -93 -5
-137 60 -13 19 -27 50 -33 69 -20 74 43 152 124 152 16 0 33 11 48 31 41 55
67 79 83 79 14 0 13 -4 -4 -26z m-18 -103 c-3 -13 2 -23 16 -30 12 -7 21 -9
21 -6 0 3 9 -4 20 -15 17 -17 24 -18 41 -9 11 6 24 8 27 4 7 -6 -7 -19 -61
-57 -15 -10 -29 -37 -40 -75 -18 -65 -50 -104 -69 -85 -9 9 -7 16 5 30 9 10
17 22 17 25 0 4 -22 32 -50 62 -60 66 -63 89 -17 104 19 6 43 25 56 41 25 34
42 39 34 11z m231 -167 c10 -26 -6 -43 -31 -33 -22 8 -30 29 -16 42 12 13 41
7 47 -9z m-399 -112 c-9 -9 -35 8 -35 24 0 16 2 16 20 -1 11 -10 18 -20 15
-23z"/>
<path d="M95 180 c-18 -20 -18 -21 10 -50 34 -36 49 -37 69 -8 15 21 14 24
-11 50 -32 33 -44 35 -68 8z m59 -19 c19 -20 14 -41 -8 -41 -18 0 -49 37 -41
49 10 17 30 13 49 -8z"/>
<path d="M200 253 c0 -5 9 -18 20 -28 11 -10 20 -14 20 -8 0 5 -9 18 -20 28
-11 10 -20 14 -20 8z"/>
<path d="M185 210 c10 -11 23 -20 28 -20 6 0 2 9 -8 20 -10 11 -23 20 -28 20
-6 0 -2 -9 8 -20z"/>
<path d="M580 120 c-8 -5 -10 -10 -5 -10 6 0 17 5 25 10 8 5 11 10 5 10 -5 0
-17 -5 -25 -10z"/>
</g>
</svg>
